<?xml version="1.0" encoding="UTF-8"?>
<!DOCTYPE svg PUBLIC "-//W3C//DTD SVG 1.1//EN" "http://www.w3.org/Graphics/SVG/1.1/DTD/svg11.dtd">
<!-- Creator: CorelDRAW -->
<svg xmlns="http://www.w3.org/2000/svg" xml:space="preserve" width="8.4666mm" height="3.6406mm" version="1.1" style="shape-rendering:geometricPrecision; text-rendering:geometricPrecision; image-rendering:optimizeQuality; fill-rule:evenodd; clip-rule:evenodd"
viewBox="0 0 846.66 364.06"
 xmlns:xlink="http://www.w3.org/1999/xlink"
 xmlns:xodm="http://www.corel.com/coreldraw/odm/2003">
 <defs>
  <style type="text/css">
   <![CDATA[
    .fil0 {fill:none}
    .fil1 {fill:#303030}
    .fil2 {fill:#303030;fill-rule:nonzero}
    .fil3 {fill:#FFF200;fill-rule:nonzero}
   ]]>
  </style>
 </defs>
 <g id="Camada_x0020_1">
  <metadata id="CorelCorpID_0Corel-Layer"/>
  <rect class="fil0" width="846.66" height="364.06"/>
  <g id="_1860585248384">
   <path class="fil1" d="M110.07 267.18l50.7 0 2.12 -6.86 0 0 0.01 -0.01 2.12 -6.84 -0.04 0 6.82 -22.45 15.53 -48.71 32.78 84.62 46.17 0 -58.58 -141.08 -40.74 0 -41.27 102.53 -15.62 38.8zm214.64 -0.06l0 -110 13.52 0c-6.72,-8.92 -11.05,-19.58 -12.37,-31.29l-76.23 0 0 31.29 39.96 0 0 110 35.12 0zm31.23 -110l8.74 0 0 -31.29 -25.67 0c1.65,11.83 7.16,22.21 15.49,29.99 0.47,0.44 0.95,0.87 1.44,1.3zm80.66 -10.51l-3.97 -9.85c1.86,-3.34 3.21,-7.01 3.99,-10.91l15.45 0c-1.46,10.56 -5.94,19.95 -12.82,27.34l-2.65 -6.58 0 0zm29.04 -20.76l13.3 0 3.77 12.71 6.74 21.83 16.05 50.33 32.78 -84.62 46.18 0 -58.59 141.08 -40.74 0 -40.47 -100.53c0.37,-0.32 0.73,-0.65 1.08,-0.97 11.13,-10.28 18.17,-24.12 19.9,-39.83zm-36.41 141.25c-10.93,-20.22 -14.33,-62.23 -15.35,-85.05 -5.82,1.31 -12.02,2 -18.54,2 -6.24,0 -12.21,-0.68 -17.85,-1.96l0 85.01 51.74 0zm-15.35 -98.93l0 -14.97c-5.42,2.25 -11.62,3.5 -18.42,3.5 -6.57,0 -12.63,-1.25 -17.97,-3.51l0 15.01c5.53,1.55 11.51,2.39 17.85,2.39 6.63,0 12.84,-0.85 18.54,-2.42zm247.92 99.23c44.82,0 74.79,-32.88 74.79,-70.71 0,-37.83 -29.97,-70.72 -74.79,-70.72 -44.81,0 -74.79,32.89 -74.79,70.72 0,37.83 29.98,70.71 74.79,70.71zm0 -40.73c-18.04,-0.3 -29.68,-13.69 -29.68,-29.98 0,-16.3 11.64,-29.68 29.68,-29.98 18.05,0.3 29.69,13.68 29.69,29.98 0,16.29 -11.64,29.68 -29.69,29.98z"/>
   <path class="fil2" d="M395.56 138.37c13.34,0 22.32,-8.98 22.32,-20.62 0,-11.88 -8.98,-21.1 -22.32,-21.1 -12.85,0 -22.07,9.22 -22.07,21.1 0,11.64 9.22,20.62 22.07,20.62z"/>
   <path class="fil3" d="M395.56 138.37c13.34,0 22.32,-8.98 22.32,-20.62 0,-11.88 -8.98,-21.1 -22.32,-21.1 -12.85,0 -22.07,9.22 -22.07,21.1 0,11.64 9.22,20.62 22.07,20.62z"/>
  </g>
 </g>
</svg>
