<?xml version="1.0" encoding="UTF-8"?>
<!DOCTYPE svg PUBLIC "-//W3C//DTD SVG 1.1//EN" "http://www.w3.org/Graphics/SVG/1.1/DTD/svg11.dtd">
<!-- Creator: CorelDRAW -->
<svg xmlns="http://www.w3.org/2000/svg" xml:space="preserve" width="29mm" height="8mm" version="1.1" style="shape-rendering:geometricPrecision; text-rendering:geometricPrecision; image-rendering:optimizeQuality; fill-rule:evenodd; clip-rule:evenodd"
viewBox="0 0 2900 800"
 xmlns:xlink="http://www.w3.org/1999/xlink"
 xmlns:xodm="http://www.corel.com/coreldraw/odm/2003">
 <defs>
  <style type="text/css">
   <![CDATA[
    .fil0 {fill:#FEFEFE}
    .fil1 {fill:#FAF072;fill-rule:nonzero}
   ]]>
  </style>
 </defs>
 <g id="Camada_x0020_1">
  <metadata id="CorelCorpID_0Corel-Layer"/>
  <g id="_1860347469296">
   <path class="fil0" d="M-3.21 793.73l234.17 0 9.83 -31.65 0 0 0.03 -0.08 9.8 -31.56 -0.22 0 31.51 -103.73 71.73 -224.98 151.41 390.85 213.29 0 -270.6 -651.62 -188.19 0 -190.62 473.56 -72.14 179.21zm991.44 -0.26l0 -508.09 62.42 0c-31.05,-41.19 -51.04,-90.44 -57.11,-144.51l-352.13 0 0 144.51 184.6 0 0 508.09 162.22 0zm144.22 -508.09l40.37 0 0 -144.51 -118.58 0c7.66,54.64 33.09,102.6 71.55,138.52 2.18,2.03 4.4,4.03 6.66,5.99zm372.57 -48.52l-18.32 -45.51c8.6,-15.45 14.83,-32.38 18.4,-50.39l71.37 0c-6.73,48.77 -27.41,92.14 -59.22,126.28l-12.23 -30.38 0 0zm134.14 -95.9l61.42 0 17.43 58.72 31.13 100.82 74.13 232.47 151.41 -390.85 213.28 0 -270.6 651.61 -188.18 0 -186.91 -464.33c1.68,-1.48 3.34,-2.98 4.99,-4.5 51.38,-47.47 83.92,-111.39 91.9,-183.94zm-168.19 652.41c-50.47,-93.39 -66.18,-287.45 -70.9,-392.84 -26.88,6.05 -55.51,9.26 -85.64,9.26 -28.8,0 -56.38,-3.14 -82.43,-9.07l0 392.65 238.97 0zm-70.9 -456.93l0 -69.15c-25.04,10.38 -53.66,16.13 -85.09,16.13 -30.32,0 -58.3,-5.76 -82.98,-16.17l0 69.33c25.55,7.16 53.18,11 82.43,11 30.66,0 59.33,-3.89 85.64,-11.14zm1145.15 458.34c207,0 345.46,-151.88 345.46,-326.62 0,-174.75 -138.46,-326.64 -345.46,-326.64 -207,0 -345.47,151.89 -345.47,326.64 0,174.74 138.47,326.62 345.47,326.62zm0 -188.17c-83.33,-1.35 -137.11,-63.19 -137.11,-138.45 0,-75.28 53.78,-137.12 137.11,-138.47 83.35,1.35 137.12,63.19 137.12,138.47 0,75.26 -53.77,137.1 -137.12,138.45z"/>
   <path class="fil1" d="M1315.57 186.72c53.95,0 90.24,-36.29 90.24,-83.37 0,-48.06 -36.29,-85.33 -90.24,-85.33 -51.98,0 -89.25,37.27 -89.25,85.33 0,47.08 37.27,83.37 89.25,83.37z"/>
  </g>
 </g>
</svg>
